<?xml version="1.0" standalone="no"?>
<!DOCTYPE svg PUBLIC "-//W3C//DTD SVG 20010904//EN"
 "http://www.w3.org/TR/2001/REC-SVG-20010904/DTD/svg10.dtd">
<svg version="1.0" xmlns="http://www.w3.org/2000/svg"
 width="3264.000000pt" height="1836.000000pt" viewBox="0 0 3264.000000 1836.000000"
 preserveAspectRatio="xMidYMid meet">

<g transform="translate(0.000000,1836.000000) scale(0.100000,-0.100000)"
fill="#000000" stroke="none">
<path d="M3203 13205 l-23 -16 0 -1248 0 -1248 21 -19 c20 -18 58 -19 1328
-21 776 -1 1335 -6 1376 -12 105 -14 190 -40 245 -72 8 -5 24 -13 36 -18 12
-5 49 -35 82 -66 98 -90 146 -213 177 -453 33 -249 -14 -474 -133 -634 -50
-66 -82 -96 -153 -141 -80 -51 -122 -67 -310 -121 -83 -24 -189 -26 -1454 -30
-638 -2 -1168 -7 -1178 -11 -10 -4 -23 -19 -28 -32 -5 -13 -9 -150 -9 -303 0
-240 2 -281 16 -294 14 -14 140 -16 1247 -15 725 0 1265 4 1312 10 44 5 130
13 190 18 61 5 133 15 160 21 240 59 344 94 503 174 83 41 97 49 137 80 22 17
46 35 54 41 21 15 143 137 168 168 36 45 90 139 128 223 20 43 41 87 46 96 8
16 15 41 38 133 40 164 41 174 41 407 -1 128 -5 251 -10 273 -5 22 -14 61 -19
87 -19 86 -44 152 -98 257 -82 160 -145 237 -304 377 -117 103 -358 233 -489
264 -19 4 -48 13 -65 18 -60 21 -113 33 -250 57 l-140 25 -901 0 c-813 0 -902
2 -908 16 -3 9 -6 321 -6 694 0 661 1 680 19 690 26 13 1223 14 1362 0 235
-23 430 -94 530 -193 51 -51 119 -154 119 -181 0 -9 7 -30 15 -46 22 -42 34
-225 23 -334 -12 -109 -60 -264 -88 -281 -14 -9 -13 -48 2 -63 9 -9 106 -12
375 -12 350 0 364 1 383 20 11 11 20 29 20 39 0 11 5 23 10 26 21 13 77 164
96 260 38 186 39 286 8 465 -23 125 -83 283 -140 367 -60 90 -197 231 -283
294 -84 62 -281 158 -366 178 -22 5 -76 18 -120 30 -73 18 -114 25 -305 51
-36 5 -605 12 -1265 15 -1096 6 -1202 5 -1222 -10z"/>
<path d="M13998 13189 c-17 -9 -18 -135 -18 -2414 l0 -2404 23 -12 c15 -9 124
-14 365 -17 301 -4 345 -3 360 11 16 15 17 157 20 2415 3 2222 2 2400 -13
2415 -15 15 -54 17 -368 17 -220 0 -359 -4 -369 -11z"/>
<path d="M11755 11610 c-77 -4 -153 -12 -170 -18 -16 -6 -52 -15 -80 -20 -187
-35 -486 -162 -649 -276 -116 -81 -227 -169 -236 -187 -6 -10 -10 -82 -10
-161 0 -200 16 -224 116 -174 27 14 61 30 74 35 14 6 32 15 40 19 42 24 83 42
93 42 7 1 30 9 52 20 22 11 47 19 55 20 9 0 20 4 25 9 6 4 44 18 85 30 41 12
96 29 122 37 26 8 77 19 115 24 37 5 88 14 113 19 79 16 311 22 430 12 79 -7
137 -18 185 -36 39 -15 79 -29 90 -32 36 -11 139 -75 174 -107 118 -110 181
-258 181 -429 0 -111 -4 -117 -90 -117 -28 0 -92 -5 -143 -10 -51 -6 -168 -14
-262 -20 -160 -8 -225 -15 -420 -41 -205 -28 -197 -26 -420 -86 -132 -35 -242
-70 -260 -83 -5 -4 -21 -11 -35 -15 -43 -13 -194 -109 -268 -170 -78 -64 -157
-156 -192 -223 -12 -23 -26 -45 -31 -48 -5 -3 -9 -14 -9 -24 0 -10 -6 -31 -14
-47 -35 -69 -50 -150 -54 -283 -2 -74 1 -158 7 -185 20 -97 61 -219 79 -237 7
-7 12 -18 12 -25 0 -19 75 -122 133 -182 48 -49 155 -138 202 -168 68 -43 234
-115 315 -136 205 -56 238 -60 428 -54 214 6 279 20 508 101 23 8 57 24 75 35
19 12 40 23 47 26 40 16 43 18 146 84 38 24 109 82 158 129 69 66 91 83 101
73 7 -7 13 -69 17 -180 4 -122 9 -173 19 -185 12 -15 47 -16 360 -14 l346 3 3
1118 c1 803 -1 1124 -9 1139 -6 11 -15 44 -19 72 -17 110 -117 341 -189 434
-15 21 -40 54 -54 74 -28 39 -138 132 -221 186 -66 45 -236 125 -321 152 -38
12 -81 26 -95 32 -14 6 -50 14 -80 18 -30 5 -73 13 -95 18 -57 14 -315 21
-480 12z m793 -1763 c9 -6 12 -74 12 -285 0 -269 -1 -278 -23 -325 -32 -65
-130 -180 -197 -232 -60 -46 -184 -115 -207 -115 -8 0 -27 -7 -43 -15 -55 -28
-229 -56 -350 -57 -133 0 -223 20 -340 74 -134 62 -207 151 -256 311 -17 56
-17 63 -1 141 10 45 27 102 39 126 38 78 152 177 273 237 22 11 55 28 73 37
19 9 46 16 60 16 15 0 40 7 56 15 15 8 45 15 65 15 20 1 54 7 76 16 44 16 252
32 540 43 222 7 207 8 223 -2z"/>
<path d="M16445 11595 c-22 -8 -54 -15 -70 -15 -17 0 -46 -5 -65 -11 -19 -5
-67 -19 -107 -29 -227 -60 -554 -236 -728 -393 l-60 -54 -3 -147 c-4 -160 5
-196 50 -196 18 0 125 47 241 106 16 8 34 14 40 14 7 1 30 9 52 20 22 11 45
19 51 20 7 0 25 7 40 15 16 8 37 15 47 15 10 0 27 5 38 11 30 16 114 38 201
54 42 7 83 17 89 21 21 12 327 22 455 14 153 -10 287 -54 396 -129 171 -118
224 -223 230 -456 l3 -129 -26 -13 c-17 -8 -105 -14 -265 -18 -131 -4 -285
-13 -342 -21 -56 -8 -123 -14 -149 -14 -43 0 -82 -6 -318 -46 -136 -24 -373
-91 -490 -139 -215 -88 -426 -266 -507 -427 -51 -103 -68 -143 -68 -165 -1
-10 -7 -29 -15 -43 -21 -37 -21 -356 0 -407 8 -19 15 -47 15 -60 0 -14 6 -37
14 -51 7 -15 25 -53 40 -84 31 -67 124 -186 200 -255 60 -55 180 -139 226
-158 8 -4 31 -15 50 -25 54 -28 214 -77 330 -101 94 -19 126 -21 300 -16 155
4 212 10 275 27 98 26 173 49 200 60 11 5 45 19 75 31 30 12 62 27 70 33 8 7
35 22 60 36 64 34 188 129 259 200 33 33 65 60 70 60 15 0 21 -40 21 -139 0
-120 17 -219 39 -230 26 -14 688 -18 701 -5 9 9 11 297 7 1125 -4 1112 -4
1114 -26 1199 -12 47 -29 97 -37 112 -8 14 -14 35 -14 45 0 11 -7 28 -15 39
-8 10 -15 27 -15 37 0 42 -114 222 -197 313 -49 53 -152 143 -178 155 -11 5
-36 19 -55 30 -122 74 -316 149 -438 169 -31 5 -77 13 -102 19 -73 16 -547 13
-595 -4z m895 -1770 c9 -11 11 -81 8 -287 l-5 -273 -32 -60 c-46 -84 -92 -137
-172 -201 -137 -109 -294 -169 -512 -194 -170 -20 -339 11 -467 86 -54 31
-180 155 -180 176 0 5 -9 30 -21 55 -18 39 -20 61 -17 152 3 98 6 111 38 176
76 152 244 275 418 305 24 4 48 12 54 18 7 7 33 12 58 12 26 0 71 7 101 16 39
12 115 19 274 24 394 12 441 12 455 -5z"/>
<path d="M20295 11599 c-16 -5 -57 -14 -90 -20 -204 -35 -401 -141 -581 -312
-56 -54 -106 -97 -112 -97 -16 0 -22 39 -22 150 -1 133 -12 200 -36 217 -14
10 -88 13 -345 13 -317 0 -327 -1 -353 -21 l-27 -21 3 -1558 c2 -1283 5 -1560
16 -1573 12 -14 46 -17 210 -21 109 -3 268 -8 354 -11 149 -6 158 -5 178 15
20 20 20 25 20 1023 0 660 4 1024 11 1063 25 144 90 273 187 372 73 75 117
101 262 153 95 33 96 34 275 34 199 0 221 -4 389 -75 70 -30 102 -50 149 -96
77 -76 176 -228 177 -273 0 -7 6 -34 14 -60 47 -152 46 -127 46 -1161 0 -746
3 -979 12 -988 15 -15 714 -17 737 -3 13 8 15 161 15 1073 1 986 0 1066 -16
1108 -10 25 -18 61 -18 80 0 19 -7 46 -15 60 -8 14 -14 36 -15 50 0 14 -7 38
-15 54 -8 15 -15 32 -15 37 0 33 -107 242 -168 327 -152 214 -378 367 -649
439 -89 24 -118 26 -323 29 -131 2 -238 -1 -255 -7z"/>
<path d="M23730 11600 c-25 -5 -76 -13 -113 -19 -38 -6 -90 -18 -115 -25 -263
-81 -278 -87 -424 -161 -103 -53 -199 -118 -277 -189 -31 -29 -78 -71 -106
-94 -129 -111 -250 -290 -353 -522 -8 -19 -21 -47 -29 -62 -7 -14 -13 -37 -13
-50 0 -12 -7 -32 -15 -42 -8 -11 -15 -36 -15 -55 -1 -20 -7 -47 -15 -61 -8
-14 -15 -47 -15 -75 0 -27 -7 -77 -15 -110 -20 -82 -20 -341 0 -415 8 -30 15
-73 15 -95 0 -22 7 -51 15 -65 8 -14 14 -41 15 -61 0 -19 7 -44 15 -55 8 -10
15 -29 15 -41 0 -12 7 -39 16 -60 9 -21 22 -51 29 -68 31 -73 90 -183 123
-229 20 -28 49 -71 66 -96 37 -56 196 -213 295 -292 69 -55 204 -148 215 -148
3 0 28 -14 56 -30 28 -16 57 -30 65 -30 7 0 26 -6 42 -14 15 -7 44 -20 63 -28
19 -8 52 -23 73 -32 21 -9 47 -16 58 -16 11 0 30 -5 42 -12 26 -14 175 -46
272 -58 119 -15 492 -12 581 5 292 56 411 97 604 209 174 101 450 335 450 381
0 16 -27 51 -82 108 -46 47 -111 115 -146 151 -34 36 -68 66 -75 66 -7 0 -41
-25 -77 -55 -115 -97 -287 -202 -394 -241 -115 -42 -166 -57 -221 -65 -33 -4
-91 -13 -130 -19 -78 -13 -204 -7 -317 15 -265 50 -458 152 -623 326 -90 95
-126 149 -212 321 -7 14 -13 35 -13 46 0 11 -7 25 -15 32 -9 7 -15 29 -15 54
0 23 -7 52 -16 64 -23 33 -23 459 0 514 9 21 16 52 16 70 0 18 7 42 15 52 8
11 15 27 15 35 1 33 102 215 163 294 123 156 216 233 377 309 145 69 268 98
458 105 150 6 275 -11 402 -55 102 -36 314 -145 375 -193 28 -22 69 -55 93
-74 23 -19 48 -32 55 -29 6 3 35 35 62 72 28 37 92 113 143 168 50 56 92 110
92 120 0 9 -28 42 -62 73 -79 72 -240 201 -250 201 -5 0 -27 12 -51 27 -136
88 -329 163 -507 198 -36 7 -89 18 -119 24 -60 12 -490 13 -561 1z"/>
<path d="M26965 11595 c-27 -8 -65 -14 -83 -15 -68 0 -249 -55 -400 -119 -193
-83 -405 -244 -580 -441 -100 -112 -146 -180 -208 -303 -25 -51 -52 -105 -60
-120 -8 -16 -14 -36 -14 -46 0 -9 -6 -25 -14 -36 -30 -43 -73 -230 -86 -375
-46 -489 71 -921 333 -1225 215 -249 435 -408 705 -509 124 -47 139 -51 287
-86 159 -38 226 -44 480 -43 237 0 258 2 405 31 146 29 277 66 345 97 262 120
473 262 623 418 64 67 72 86 49 109 -94 92 -285 258 -296 258 -5 0 -42 -25
-84 -55 -126 -90 -254 -163 -326 -185 -14 -5 -51 -18 -81 -30 -254 -99 -576
-126 -845 -71 -249 51 -498 204 -641 394 -74 99 -144 269 -170 416 l-17 95 23
18 c21 17 77 18 1240 18 1045 0 1219 2 1229 14 24 28 0 485 -28 560 -6 15 -11
38 -11 51 0 28 -38 164 -69 245 -48 127 -151 305 -237 406 -112 133 -284 285
-374 331 -19 10 -56 30 -81 45 -102 58 -282 114 -487 153 -109 20 -454 20
-527 0z m370 -511 c60 -8 139 -25 175 -36 84 -27 213 -104 284 -169 104 -95
206 -266 221 -369 3 -24 10 -49 16 -56 5 -7 8 -54 7 -105 l-3 -94 -857 0
c-617 0 -860 3 -868 11 -8 8 -7 32 4 90 19 94 41 174 54 200 5 11 20 39 32 64
37 73 110 170 175 236 99 99 325 213 428 215 18 0 64 6 102 13 94 18 103 18
230 0z"/>
<path d="M7052 11538 c-7 -7 -12 -16 -12 -21 0 -12 111 -269 165 -382 24 -49
46 -97 49 -105 3 -8 10 -22 15 -30 5 -8 16 -31 24 -50 14 -31 39 -87 97 -215
10 -22 47 -101 83 -175 98 -206 124 -263 132 -290 9 -27 56 -129 162 -350 39
-80 78 -163 88 -185 10 -22 31 -66 46 -99 16 -32 29 -62 29 -66 0 -4 32 -75
71 -156 69 -144 77 -163 114 -249 10 -22 24 -53 31 -68 8 -16 14 -32 14 -37 0
-5 23 -56 50 -115 28 -59 50 -108 50 -111 0 -2 16 -39 36 -81 113 -239 128
-278 128 -317 -1 -77 -252 -529 -359 -645 -138 -151 -382 -280 -590 -312 -181
-28 -223 -31 -330 -25 -107 7 -114 6 -124 -13 -7 -13 -11 -130 -11 -334 0
-278 2 -316 16 -321 33 -13 328 -6 384 9 30 8 75 15 100 15 25 0 71 9 103 20
31 11 68 20 82 20 15 0 36 5 48 12 12 6 38 15 57 19 74 16 213 76 315 137 216
129 462 374 640 637 37 55 71 109 76 120 5 11 18 34 29 50 11 17 24 39 30 50
10 21 16 30 66 110 18 28 48 86 69 130 20 44 41 87 46 95 5 8 12 22 15 30 3 8
10 22 15 30 5 8 12 22 15 30 5 15 22 54 49 115 37 82 56 126 75 176 11 30 25
63 30 74 5 11 19 45 30 75 12 30 28 67 36 82 8 14 14 34 14 43 0 9 6 29 14 43
8 15 22 47 32 72 10 25 33 78 51 118 18 40 33 76 33 80 0 4 21 57 46 117 25
61 49 121 54 135 4 14 12 36 18 50 6 14 20 50 32 80 12 30 27 69 34 85 7 17
20 46 29 65 22 52 79 192 122 300 20 52 43 109 50 125 20 45 75 166 90 200 8
17 31 73 51 125 20 52 45 114 55 137 11 23 19 46 19 52 0 5 6 22 14 38 13 26
24 51 61 138 8 19 21 50 29 68 7 17 46 109 86 202 40 94 79 186 88 205 8 19
21 49 28 65 7 17 24 56 38 87 30 66 32 84 10 92 -25 10 -600 7 -626 -3 -16 -6
-32 -30 -51 -77 -16 -38 -35 -81 -43 -96 -8 -14 -14 -35 -14 -45 0 -11 -7 -28
-15 -39 -8 -10 -15 -30 -15 -44 0 -14 -7 -34 -15 -44 -8 -11 -15 -28 -15 -37
0 -10 -7 -30 -15 -46 -39 -75 -101 -227 -201 -488 -15 -39 -32 -78 -59 -140
-18 -41 -101 -253 -170 -435 -38 -101 -48 -128 -60 -155 -7 -16 -22 -55 -35
-85 -12 -30 -29 -67 -36 -82 -8 -14 -14 -34 -14 -43 0 -9 -6 -29 -14 -43 -28
-54 -126 -305 -126 -322 0 -6 -4 -18 -9 -28 -6 -9 -22 -44 -37 -77 -15 -35
-28 -54 -31 -45 -6 19 -41 108 -53 135 -20 45 -112 272 -120 296 -4 14 -12 34
-18 45 -5 10 -19 42 -31 69 -13 28 -29 62 -37 77 -8 14 -14 33 -14 41 0 9 -6
28 -14 44 -8 15 -21 45 -30 66 -9 20 -22 52 -30 70 -8 17 -40 93 -71 167 -56
131 -70 165 -99 233 -64 148 -146 347 -146 352 0 10 -68 170 -101 240 -16 33
-29 66 -29 72 0 6 -6 24 -14 40 -7 15 -20 44 -28 63 -8 19 -25 56 -37 81 -11
25 -21 49 -21 52 0 8 -65 151 -90 197 l-19 35 -383 3 c-290 2 -387 -1 -396
-10z"/>
</g>
</svg>
