<svg xmlns="http://www.w3.org/2000/svg" width="1024" height="1024" viewBox="0 0 1024 1024">
<g>
<path d="M 575.50 766.95 C566.38,767.98 296.69,768.35 295.67,767.33 C295.30,766.97 295.00,752.20 295.00,734.52 C295.00,708.35 295.26,702.02 296.42,700.44 C297.81,698.54 300.46,698.50 429.17,698.27 C560.83,698.04 574.22,697.72 585.36,694.43 C588.04,693.64 590.87,693.00 591.65,693.00 C594.94,693.00 606.85,688.53 616.50,683.66 C638.63,672.50 652.97,644.76 653.02,613.00 C653.04,595.48 648.57,572.70 642.63,560.12 C639.23,552.91 630.60,543.40 624.50,540.12 C622.30,538.94 619.83,537.60 619.00,537.13 C613.81,534.20 610.94,533.00 609.11,533.00 C607.96,533.00 604.65,532.00 601.76,530.78 L 596.50 528.56 L 447.37 528.24 C308.03,527.94 298.14,527.81 296.69,526.21 C295.33,524.70 295.06,515.56 294.55,452.00 C294.23,412.12 294.27,350.60 294.64,315.27 C295.31,251.27 295.32,251.03 297.41,250.34 C300.62,249.26 557.48,249.95 565.00,251.05 C568.58,251.57 576.50,252.67 582.60,253.49 C592.58,254.84 597.60,255.93 614.50,260.46 C625.23,263.33 631.84,266.25 648.00,275.27 C653.85,278.54 658.67,282.38 667.27,290.66 C683.66,306.42 690.37,316.54 696.65,335.00 C701.93,350.53 704.40,375.80 701.97,389.50 C701.48,392.25 700.62,397.34 700.05,400.80 C698.70,409.01 694.86,420.37 691.04,427.43 C689.37,430.52 688.00,433.68 688.00,434.47 C688.00,435.25 687.00,436.59 685.78,437.44 C683.86,438.79 678.30,439.00 645.21,439.00 C607.51,439.00 603.00,438.65 603.00,435.73 C603.00,435.07 604.30,431.83 605.88,428.52 C613.06,413.55 615.42,399.38 613.97,380.00 C613.25,370.51 609.74,356.39 607.54,354.21 C607.14,353.82 606.25,352.15 605.56,350.50 C601.52,340.95 585.62,328.99 573.00,326.02 C571.08,325.57 568.15,324.73 566.50,324.16 C561.44,322.40 553.96,320.88 543.50,319.49 C529.73,317.65 390.01,317.39 388.20,319.20 C386.42,320.98 386.47,467.90 388.25,470.30 C389.40,471.85 397.33,472.01 492.00,472.29 C592.55,472.59 594.70,472.63 605.00,474.76 C617.08,477.25 623.25,478.73 627.50,480.19 C629.15,480.75 632.30,481.54 634.50,481.93 C636.70,482.32 639.94,483.40 641.70,484.32 C643.46,485.24 645.45,486.00 646.12,486.00 C648.90,486.00 671.52,498.33 680.14,504.55 C695.11,515.34 703.11,522.93 712.75,535.50 C718.54,543.05 728.02,562.01 730.76,571.50 C736.00,589.67 736.41,592.73 736.79,616.71 C737.12,637.68 736.96,640.73 735.08,648.15 C733.94,652.68 733.00,657.37 733.00,658.58 C733.00,663.27 726.54,681.48 720.96,692.50 C712.30,709.61 704.23,719.54 688.46,732.50 C685.79,734.70 682.22,737.37 680.55,738.43 C668.99,745.76 637.81,759.00 632.12,759.00 C631.09,759.00 628.63,759.67 626.65,760.50 C624.68,761.33 621.05,762.00 618.60,762.00 C616.14,762.00 612.86,762.48 611.32,763.08 C609.77,763.67 602.88,764.58 596.00,765.10 C589.12,765.62 579.90,766.45 575.50,766.95 Z" fill="rgb(0,92,254)"/>
<path d="M 500.22 624.12 C495.30,626.02 488.65,626.54 478.00,625.85 C472.23,625.47 455.12,624.67 440.00,624.06 C424.88,623.46 409.85,622.45 406.62,621.82 C402.12,620.96 400.28,620.97 398.82,621.88 C396.93,623.06 387.77,623.35 325.50,624.18 L 301.50 624.50 L 301.56 608.56 L 301.62 592.61 L 304.56 591.76 C306.18,591.29 330.23,590.97 358.00,591.05 C385.77,591.14 420.65,590.89 435.50,590.51 C467.01,589.69 496.61,590.94 502.26,593.32 C506.48,595.10 507.88,597.75 508.70,605.54 C509.16,609.84 508.77,611.52 506.09,616.83 C503.91,621.15 502.09,623.40 500.22,624.12 Z" fill="rgb(60,230,84)"/>
<path d="M 502.99 626.51 L 498.07 629.00 L 398.54 628.75 C343.80,628.61 298.56,628.35 298.00,628.17 C296.77,627.76 296.65,590.11 297.88,588.17 C298.57,587.07 316.11,586.84 396.38,586.85 C399.77,586.85 403.05,586.85 406.22,586.85 C491.81,586.86 500.57,586.87 505.82,591.16 C506.61,591.81 507.32,592.55 508.21,593.41 C517.65,602.58 514.82,620.51 502.99,626.51 ZM 500.22 624.12 C502.09,623.40 503.91,621.15 506.09,616.83 C508.77,611.52 509.16,609.84 508.70,605.54 C507.88,597.75 506.48,595.10 502.26,593.32 C496.61,590.94 467.01,589.69 435.50,590.51 C420.65,590.89 385.77,591.14 358.00,591.05 C330.23,590.97 306.18,591.29 304.56,591.76 L 301.62 592.61 L 301.56 608.56 L 301.50 624.50 L 325.50 624.18 C387.77,623.35 396.93,623.06 398.82,621.88 C400.28,620.97 402.12,620.96 406.62,621.82 C409.85,622.45 424.88,623.46 440.00,624.06 C455.12,624.67 472.23,625.47 478.00,625.85 C488.65,626.54 495.30,626.02 500.22,624.12 Z" fill="rgb(74,232,96)"/>
<path d="M 575.50 766.95 C579.90,766.45 589.12,765.62 596.00,765.10 C602.88,764.58 609.77,763.67 611.32,763.08 C612.86,762.48 616.14,762.00 618.60,762.00 C619.59,762.00 620.78,761.89 621.97,761.70 C613.46,764.14 606.41,765.35 597.00,766.07 C590.67,766.56 581.90,767.39 577.50,767.92 C572.72,768.50 514.48,768.91 432.90,768.95 C299.95,769.00 296.26,768.95 294.59,767.10 C293.03,765.37 292.90,762.31 293.19,733.01 L 293.50 700.82 L 295.86 698.91 C298.16,697.05 301.80,697.00 428.36,696.93 C562.99,696.86 571.85,696.63 588.50,692.69 C609.07,687.83 625.39,678.84 634.31,667.47 C648.97,648.79 654.51,622.80 650.11,593.36 C646.41,568.61 642.42,558.45 632.50,548.49 C625.32,541.29 614.01,534.65 606.77,533.39 C604.97,533.08 601.70,532.09 599.50,531.19 C595.88,529.72 581.53,529.54 446.50,529.33 L 297.50 529.10 L 293.00 523.89 L 293.00 388.14 C293.00,281.07 293.26,252.04 294.25,250.75 C295.35,249.33 299.71,249.05 329.50,248.53 C375.51,247.73 569.24,249.51 575.00,250.79 C577.47,251.34 583.10,252.32 587.50,252.98 C596.42,254.31 617.47,259.70 626.18,262.89 C629.30,264.03 634.16,266.32 636.97,267.98 C639.79,269.64 642.41,271.00 642.79,271.00 C645.01,271.00 659.76,281.83 667.37,289.03 C692.18,312.56 702.34,335.55 703.71,371.25 C704.14,382.63 703.92,387.53 702.72,392.75 C701.86,396.46 700.88,401.52 700.53,404.00 C699.75,409.59 696.16,419.67 691.62,429.04 C689.76,432.87 688.97,435.38 687.32,437.02 C684.21,440.08 678.06,440.07 655.98,440.02 C652.77,440.01 649.21,440.00 645.28,440.00 C620.02,440.00 605.17,439.63 603.93,438.96 C601.26,437.54 601.51,434.56 604.88,427.52 C611.21,414.26 612.98,405.74 612.99,388.43 C613.00,376.50 611.76,367.69 609.46,363.28 C608.66,361.75 608.01,359.54 608.01,358.37 C608.00,357.20 607.33,355.68 606.50,355.00 C605.67,354.32 605.00,353.18 605.00,352.48 C605.00,348.18 589.32,333.15 582.00,330.43 C581.17,330.12 578.70,329.04 576.50,328.03 C574.02,326.88 571.74,325.92 569.46,325.08 C570.70,325.44 571.99,325.78 573.00,326.02 C585.62,328.99 601.52,340.95 605.56,350.50 C606.25,352.15 607.14,353.82 607.54,354.21 C609.74,356.39 613.25,370.51 613.97,380.00 C615.42,399.38 613.06,413.55 605.88,428.52 C604.30,431.83 603.00,435.07 603.00,435.73 C603.00,438.65 607.51,439.00 645.21,439.00 C678.30,439.00 683.86,438.79 685.78,437.44 C687.00,436.59 688.00,435.25 688.00,434.47 C688.00,433.68 689.37,430.52 691.04,427.43 C694.86,420.37 698.70,409.01 700.05,400.80 C700.62,397.34 701.48,392.25 701.97,389.50 C704.40,375.80 701.93,350.53 696.65,335.00 C690.37,316.54 683.66,306.42 667.27,290.66 C658.67,282.38 653.85,278.54 648.00,275.27 C631.84,266.25 625.23,263.33 614.50,260.46 C597.60,255.93 592.58,254.84 582.60,253.49 C576.50,252.67 568.58,251.57 565.00,251.05 C557.48,249.95 300.62,249.26 297.41,250.34 C295.32,251.03 295.31,251.27 294.64,315.27 C294.27,350.60 294.23,412.12 294.55,452.00 C295.06,515.56 295.33,524.70 296.69,526.21 C298.14,527.81 308.03,527.94 447.37,528.24 L 596.50 528.56 L 601.76 530.78 C604.65,532.00 607.96,533.00 609.11,533.00 C610.94,533.00 613.81,534.20 619.00,537.13 C619.83,537.60 622.30,538.94 624.50,540.12 C630.60,543.40 639.23,552.91 642.63,560.12 C648.57,572.70 653.04,595.48 653.02,613.00 C652.97,644.76 638.63,672.50 616.50,683.66 C606.85,688.53 594.94,693.00 591.65,693.00 C590.87,693.00 588.04,693.64 585.36,694.43 C574.22,697.72 560.83,698.04 429.17,698.27 C300.46,698.50 297.81,698.54 296.42,700.44 C295.26,702.02 295.00,708.35 295.00,734.52 C295.00,752.20 295.30,766.97 295.67,767.33 C296.69,768.35 566.38,767.98 575.50,766.95 ZM 653.15 751.88 C660.06,748.97 667.42,745.58 673.31,742.52 C672.58,742.90 671.82,743.30 671.00,743.72 C665.98,746.32 659.44,749.27 653.15,751.88 ZM 552.81 320.90 C550.07,320.43 547.01,319.98 543.50,319.51 C538.10,318.78 513.13,318.29 484.74,318.08 C513.12,318.28 538.08,318.76 543.50,319.49 C546.91,319.94 550.01,320.41 552.81,320.90 ZM 629.30 759.56 C630.47,759.22 631.53,759.00 632.12,759.00 C632.83,759.00 633.94,758.79 635.37,758.41 C634.00,758.79 632.97,759.00 632.38,759.00 C631.86,759.00 630.69,759.22 629.30,759.56 ZM 682.93 736.78 C684.65,735.53 686.74,733.92 688.46,732.50 C686.39,734.20 684.66,735.56 682.93,736.78 Z" fill="rgb(72,137,254)"/>
<path d="M 581.00 768.93 C576.13,769.47 513.26,769.90 433.81,769.94 L 295.11 770.00 L 293.56 767.78 C292.23,765.88 292.00,760.96 292.00,734.23 C292.00,701.42 292.39,698.22 296.54,696.62 C297.44,696.28 355.15,696.00 424.80,696.00 C546.67,696.00 575.36,695.44 582.01,692.91 C583.39,692.38 586.77,691.56 589.51,691.08 C596.49,689.86 601.88,687.90 614.00,682.17 C630.46,674.40 643.59,655.92 648.05,634.27 C650.45,622.61 650.62,605.57 648.48,590.93 C643.31,555.55 631.69,541.58 600.29,533.02 L 592.09 530.77 L 444.79 530.58 C363.78,530.48 296.77,530.05 295.89,529.64 C295.00,529.23 293.76,527.77 293.14,526.40 C292.31,524.58 292.00,487.14 292.00,387.45 C292.00,256.04 292.07,250.93 293.85,249.15 C295.54,247.46 298.41,247.24 327.10,246.63 C366.03,245.80 558.66,247.65 569.27,248.95 C573.54,249.48 579.62,250.36 582.77,250.92 C585.92,251.48 590.97,252.35 594.00,252.85 C605.37,254.74 630.41,262.28 634.50,265.05 C635.05,265.42 639.03,267.60 643.35,269.90 C663.64,280.67 684.81,301.99 693.35,320.25 C702.17,339.10 705.28,353.51 705.25,375.50 C705.23,387.39 704.82,392.78 703.63,396.50 C702.74,399.25 702.02,402.59 702.01,403.92 C701.98,409.71 691.10,435.80 687.27,439.26 C685.72,440.65 680.44,440.89 645.50,441.13 L 644.22 441.14 C610.30,441.38 603.00,441.43 601.43,438.46 C601.00,437.64 601.00,436.60 601.00,435.27 L 601.00 435.09 C601.00,432.89 601.64,430.71 602.50,430.00 C603.33,429.32 604.00,428.11 604.00,427.31 C604.00,426.52 604.54,424.89 605.21,423.68 C607.71,419.15 609.97,411.22 611.10,403.00 C612.58,392.26 611.71,372.96 609.48,366.93 C608.57,364.50 607.58,361.39 607.26,360.03 C605.29,351.60 593.20,337.41 584.37,333.16 C572.52,327.47 569.94,326.54 555.50,322.83 C546.52,320.53 546.31,320.52 467.75,320.23 L 389.00 319.93 L 389.00 394.36 C389.00,461.30 389.16,468.85 390.58,469.39 C391.45,469.73 436.79,470.00 491.33,469.99 C587.29,469.98 590.87,470.05 602.00,472.05 C608.33,473.19 615.59,474.77 618.13,475.56 C620.68,476.35 623.83,477.02 625.13,477.04 C626.44,477.05 628.62,477.71 630.00,478.50 C631.38,479.29 633.51,479.95 634.75,479.96 C635.99,479.98 637.00,480.44 637.00,480.97 C637.00,481.50 637.65,481.69 638.45,481.38 C639.25,481.07 640.93,481.54 642.18,482.41 C643.42,483.28 645.19,484.00 646.09,484.00 C648.47,484.00 669.40,494.56 675.40,498.79 C678.21,500.77 682.44,503.70 684.81,505.31 C689.64,508.58 702.43,520.20 707.37,525.82 C713.86,533.20 720.09,542.92 726.18,555.21 C735.76,574.52 739.65,597.50 738.50,628.00 C737.47,655.41 731.26,678.09 718.65,700.50 C707.27,720.72 691.07,735.48 668.00,746.63 C650.01,755.32 649.64,755.48 641.00,758.00 C618.06,764.69 612.23,765.98 600.00,767.06 C594.22,767.57 585.67,768.42 581.00,768.93 ZM 653.15 751.88 L 653.15 751.88 C659.45,749.27 665.98,746.31 671.00,743.72 C671.82,743.30 672.58,742.90 673.31,742.52 C676.13,741.05 678.61,739.66 680.55,738.43 C681.14,738.05 681.98,737.47 682.93,736.78 C684.66,735.55 686.39,734.20 688.46,732.50 C704.23,719.54 712.30,709.61 720.96,692.50 C726.54,681.48 733.00,663.27 733.00,658.58 C733.00,657.37 733.94,652.68 735.08,648.15 C736.96,640.73 737.12,637.68 736.79,616.71 C736.41,592.73 736.00,589.67 730.76,571.50 C728.02,562.01 718.54,543.05 712.75,535.50 C703.11,522.93 695.11,515.34 680.14,504.55 C671.52,498.33 648.90,486.00 646.12,486.00 C645.45,486.00 643.46,485.24 641.70,484.32 C639.94,483.40 636.70,482.32 634.50,481.93 C632.30,481.54 629.15,480.75 627.50,480.19 C623.25,478.73 617.08,477.25 605.00,474.76 C594.70,472.63 592.55,472.59 492.00,472.29 C397.33,472.01 389.40,471.85 388.25,470.30 C386.47,467.90 386.42,320.98 388.20,319.20 C389.30,318.10 441.07,317.77 484.74,318.08 C513.13,318.29 538.10,318.78 543.50,319.51 C547.01,319.98 550.07,320.43 552.81,320.90 C558.58,321.90 563.09,322.97 566.50,324.16 C567.28,324.43 568.35,324.76 569.46,325.08 C571.74,325.92 574.02,326.88 576.50,328.03 C578.70,329.04 581.17,330.12 582.00,330.43 C589.32,333.15 605.00,348.18 605.00,352.48 C605.00,353.18 605.67,354.32 606.50,355.00 C607.33,355.68 608.00,357.20 608.01,358.37 C608.01,359.54 608.66,361.75 609.46,363.28 C611.76,367.69 613.00,376.50 612.99,388.43 C612.98,405.74 611.21,414.26 604.88,427.52 C601.51,434.56 601.26,437.54 603.93,438.96 C605.17,439.63 620.02,440.00 645.28,440.00 C649.21,440.00 652.77,440.01 655.98,440.02 C678.06,440.07 684.21,440.08 687.32,437.02 C688.97,435.38 689.76,432.87 691.62,429.04 C696.16,419.67 699.75,409.59 700.53,404.00 C700.88,401.52 701.86,396.46 702.72,392.75 C703.92,387.53 704.14,382.63 703.71,371.25 C702.34,335.55 692.18,312.56 667.37,289.03 C659.76,281.83 645.01,271.00 642.79,271.00 C642.41,271.00 639.79,269.64 636.97,267.98 C634.16,266.32 629.30,264.03 626.18,262.89 C617.47,259.70 596.42,254.31 587.50,252.98 C583.10,252.32 577.47,251.34 575.00,250.79 C569.24,249.51 375.51,247.73 329.50,248.53 C299.71,249.05 295.35,249.33 294.25,250.75 C293.26,252.04 293.00,281.07 293.00,388.14 L 293.00 523.89 L 297.50 529.10 L 446.50 529.33 C581.53,529.54 595.88,529.72 599.50,531.19 C601.70,532.09 604.97,533.08 606.77,533.39 C614.01,534.65 625.32,541.29 632.50,548.49 C642.42,558.45 646.41,568.61 650.11,593.36 C654.51,622.80 648.97,648.79 634.31,667.47 C625.39,678.84 609.07,687.83 588.50,692.69 C571.85,696.63 562.99,696.86 428.36,696.93 C301.80,697.00 298.16,697.05 295.86,698.91 L 293.50 700.82 L 293.19 733.01 C292.90,762.31 293.03,765.37 294.59,767.10 C296.26,768.95 299.95,769.00 432.90,768.95 C514.48,768.91 572.72,768.50 577.50,767.92 C581.90,767.39 590.67,766.56 597.00,766.07 C606.41,765.35 613.46,764.14 621.97,761.70 C623.72,761.43 625.48,760.99 626.65,760.50 C627.50,760.15 628.43,759.82 629.30,759.56 C630.69,759.22 631.86,759.00 632.38,759.00 C632.97,759.00 634.00,758.79 635.37,758.42 L 635.37 758.41 C639.44,757.33 646.06,754.86 653.15,751.88 ZM 504.54 629.62 C501.70,631.43 497.72,631.50 401.04,631.50 C345.74,631.50 299.38,631.36 298.00,631.18 C293.33,630.58 293.00,629.02 293.00,607.92 C293.00,590.13 293.18,588.00 294.88,585.90 L 296.76 583.58 L 396.13 583.56 C472.67,583.55 496.42,583.83 499.50,584.79 C514.18,589.36 522.01,605.21 515.70,617.57 C513.11,622.66 509.68,626.36 504.54,629.62 ZM 502.99 626.51 C514.82,620.51 517.65,602.58 508.21,593.41 C507.32,592.55 506.61,591.81 505.82,591.16 C500.57,586.87 491.81,586.86 406.22,586.85 C403.05,586.85 399.77,586.85 396.38,586.85 C316.11,586.84 298.57,587.07 297.88,588.17 C296.65,590.11 296.77,627.76 298.00,628.17 C298.56,628.35 343.80,628.61 398.54,628.75 L 498.07 629.00 Z" fill="rgb(173,202,254)"/>
<path d="M 0.00 512.00 L 0.00 0.00 L 512.00 0.00 L 1024.00 0.00 L 1024.00 512.00 L 1024.00 1024.00 L 512.00 1024.00 L 0.00 1024.00 L 0.00 512.00 ZM 581.00 768.93 C585.67,768.42 594.22,767.57 600.00,767.06 C612.23,765.98 618.06,764.69 641.00,758.00 C649.64,755.48 650.01,755.32 668.00,746.63 C691.07,735.48 707.27,720.72 718.65,700.50 C731.26,678.09 737.47,655.41 738.50,628.00 C739.65,597.50 735.76,574.52 726.18,555.21 C720.09,542.92 713.86,533.20 707.37,525.82 C702.43,520.20 689.64,508.58 684.81,505.31 C682.44,503.70 678.21,500.77 675.40,498.79 C669.40,494.56 648.47,484.00 646.09,484.00 C645.19,484.00 643.42,483.28 642.18,482.41 C640.93,481.54 639.25,481.07 638.45,481.38 C637.65,481.69 637.00,481.50 637.00,480.97 C637.00,480.44 635.99,479.98 634.75,479.96 C633.51,479.95 631.38,479.29 630.00,478.50 C628.62,477.71 626.44,477.05 625.13,477.04 C623.83,477.02 620.68,476.35 618.13,475.56 C615.59,474.77 608.33,473.19 602.00,472.05 C590.87,470.05 587.29,469.98 491.33,469.99 C436.79,470.00 391.45,469.73 390.58,469.39 C389.16,468.85 389.00,461.30 389.00,394.36 L 389.00 319.93 L 467.75 320.23 C546.31,320.52 546.52,320.53 555.50,322.83 C569.94,326.54 572.52,327.47 584.37,333.16 C593.20,337.41 605.29,351.60 607.26,360.03 C607.58,361.39 608.57,364.50 609.48,366.93 C611.71,372.96 612.58,392.26 611.10,403.00 C609.97,411.22 607.71,419.15 605.21,423.68 C604.54,424.89 604.00,426.52 604.00,427.31 C604.00,428.11 603.33,429.32 602.50,430.00 C601.64,430.71 601.00,432.89 601.00,435.09 C601.00,441.51 600.57,441.45 645.50,441.13 C680.44,440.89 685.72,440.65 687.27,439.26 C691.10,435.80 701.98,409.71 702.01,403.92 C702.02,402.59 702.74,399.25 703.63,396.50 C704.82,392.78 705.23,387.39 705.25,375.50 C705.28,353.51 702.17,339.10 693.35,320.25 C684.81,301.99 663.64,280.67 643.35,269.90 C639.03,267.60 635.05,265.42 634.50,265.05 C630.41,262.28 605.37,254.74 594.00,252.85 C590.97,252.35 585.92,251.48 582.77,250.92 C579.62,250.36 573.54,249.48 569.27,248.95 C558.66,247.65 366.03,245.80 327.10,246.63 C298.41,247.24 295.54,247.46 293.85,249.15 C292.07,250.93 292.00,256.04 292.00,387.45 C292.00,487.14 292.31,524.58 293.14,526.40 C293.76,527.77 295.00,529.23 295.89,529.64 C296.77,530.05 363.78,530.48 444.79,530.58 L 592.09 530.77 L 600.29 533.02 C631.69,541.58 643.31,555.55 648.48,590.93 C650.62,605.57 650.45,622.61 648.05,634.27 C643.59,655.92 630.46,674.40 614.00,682.17 C601.88,687.90 596.49,689.86 589.51,691.08 C586.77,691.56 583.39,692.38 582.01,692.91 C575.36,695.44 546.67,696.00 424.80,696.00 C355.15,696.00 297.44,696.28 296.54,696.62 C292.39,698.22 292.00,701.42 292.00,734.23 C292.00,760.96 292.23,765.88 293.56,767.78 L 295.11 770.00 L 433.81 769.94 C513.26,769.90 576.13,769.47 581.00,768.93 ZM 504.54 629.62 C509.68,626.36 513.11,622.66 515.70,617.57 C522.01,605.21 514.18,589.36 499.50,584.79 C496.42,583.83 472.67,583.55 396.13,583.56 L 296.76 583.58 L 294.88 585.90 C293.18,588.00 293.00,590.13 293.00,607.92 C293.00,629.02 293.33,630.58 298.00,631.18 C299.38,631.36 345.74,631.50 401.04,631.50 C497.72,631.50 501.70,631.43 504.54,629.62 Z" fill="rgb(254,254,254)"/>
</g>
</svg>